<?xml version="1.0" standalone="no"?>
<!DOCTYPE svg PUBLIC "-//W3C//DTD SVG 20010904//EN"
 "http://www.w3.org/TR/2001/REC-SVG-20010904/DTD/svg10.dtd">
<svg version="1.0" xmlns="http://www.w3.org/2000/svg"
 width="268.000000pt" height="268.000000pt" viewBox="0 0 268.000000 268.000000"
 preserveAspectRatio="xMidYMid meet">
<metadata>
Created by potrace 1.11, written by Peter Selinger 2001-2013
</metadata>
<g transform="translate(0.000000,268.000000) scale(0.100000,-0.100000)"
fill="#000000" stroke="none">
<path d="M10 1340 l0 -1330 1330 0 1330 0 0 1330 0 1330 -1330 0 -1330 0 0
-1330z m340 280 l0 -91 31 23 c42 32 144 33 186 2 42 -31 52 -73 52 -231 l1
-143 -65 0 -65 0 0 133 c0 90 -4 137 -12 145 -20 20 -65 14 -97 -14 l-31 -26
0 -119 0 -119 -65 0 -65 0 0 265 0 265 65 0 65 0 0 -90z m462 -47 l-4 -138 69
68 69 67 79 0 80 0 -77 -77 -77 -78 66 -95 c36 -52 72 -105 80 -117 l15 -23
-78 0 -79 0 -33 63 c-18 34 -39 71 -47 81 -15 19 -15 19 -41 -5 -24 -22 -26
-29 -20 -81 l6 -58 -65 0 -65 0 0 265 0 265 63 0 62 0 -3 -137z m1148 115 c80
-40 110 -138 71 -223 -36 -78 -89 -105 -207 -105 l-74 0 0 -90 0 -90 -65 0
-65 0 0 265 0 265 148 0 c133 0 152 -2 192 -22z m280 -189 l0 -211 130 4 130
4 0 -58 0 -58 -195 0 -195 0 0 265 0 265 65 0 65 0 0 -211z m-970 61 c0 -16
73 -210 79 -210 7 0 82 190 81 208 0 8 21 12 70 12 39 0 70 -1 70 -3 0 -15
-194 -445 -208 -460 -29 -32 -68 -47 -124 -47 -73 0 -82 8 -74 62 7 43 7 44
42 40 39 -5 74 18 74 48 0 10 -30 84 -66 166 -36 82 -70 159 -75 172 -8 22 -7
22 61 22 40 0 70 -4 70 -10z"/>
<path d="M1750 1535 l0 -65 63 0 c34 0 67 4 73 8 34 23 38 84 6 110 -9 7 -43
12 -79 12 l-63 0 0 -65z"/>
</g>
</svg>
